0
SECTION
2
HEADER
9
$INSUNITS
70
4
9
$ACADVER
1
AC1014
9
$HANDSEED
5
FFFF
0
ENDSEC
0
SECTION
2
TABLES
0
TABLE
2
VPORT
5
8
100
AcDbSymbolTable
0
ENDTAB
0
TABLE
2
LTYPE
5
5
100
AcDbSymbolTable
0
LTYPE
5
14
100
AcDbSymbolTableRecord
100
AcDbLinetypeTableRecord
2
BYBLOCK
70
0
0
LTYPE
5
15
100
AcDbSymbolTableRecord
100
AcDbLinetypeTableRecord
2
BYLAYER
70
0
0
ENDTAB
0
TABLE
2
LAYER
5
2
100
AcDbSymbolTable
70
2
0
LAYER
5
50
100
AcDbSymbolTableRecord
100
AcDbLayerTableRecord
2
0
70
0
6
CONTINUOUS
0
ENDTAB
0
TABLE
2
STYLE
5
3
100
AcDbSymbolTable
70
1
0
STYLE
5
11
100
AcDbSymbolTableRecord
100
AcDbTextStyleTableRecord
2
STANDARD
70
0
0
ENDTAB
0
TABLE
2
VIEW
5
6
100
AcDbSymbolTable
70
0
0
ENDTAB
0
TABLE
2
UCS
5
7
100
AcDbSymbolTable
70
0
0
ENDTAB
0
TABLE
2
APPID
5
9
100
AcDbSymbolTable
70
2
0
APPID
5
12
100
AcDbSymbolTableRecord
100
AcDbRegAppTableRecord
2
ACAD
70
0
0
ENDTAB
0
TABLE
2
DIMSTYLE
5
A
100
AcDbSymbolTable
70
1
0
ENDTAB
0
TABLE
2
BLOCK_RECORD
5
1
100
AcDbSymbolTable
70
1
0
BLOCK_RECORD
5
1F
100
AcDbSymbolTableRecord
100
AcDbBlockTableRecord
2
*MODEL_SPACE
0
BLOCK_RECORD
5
1B
100
AcDbSymbolTableRecord
100
AcDbBlockTableRecord
2
*PAPER_SPACE
0
ENDTAB
0
ENDSEC
0
SECTION
2
BLOCKS
0
BLOCK
5
20
100
AcDbEntity
100
AcDbBlockBegin
2
*MODEL_SPACE
0
ENDBLK
5
21
100
AcDbEntity
100
AcDbBlockEnd
0
BLOCK
5
1C
100
AcDbEntity
100
AcDbBlockBegin
2
*PAPER_SPACE
0
ENDBLK
5
1D
100
AcDbEntity
100
AcDbBlockEnd
0
ENDSEC
0
SECTION
2
ENTITIES
0
LWPOLYLINE
5
100
100
AcDbEntity
8
0
100
AcDbPolyline
90
40
70
1
43
0.0
10
78.653844186461725
20
-40.875000000000085
42
-0.2216946626429408
10
80.760466405038898
20
-41.85733407336209
10
84.596117052246669
20
-46.428484512108255
42
0.22169466264294041
10
85.553672606145398
20
-46.875000000000085
10
93.188441973525343
20
-46.875000000000078
42
0.22169466264294188
10
94.145997527424072
20
-46.428484512108248
10
97.981648174631815
20
-41.85733407336209
42
-0.2216946626429302
10
100.08827039320899
20
-40.875000000000071
10
100.15642166714002
20
-40.875000117955636
42
0.41401242564986135
10
100.40625000023597
20
-40.625000090403404
10
100.40625000023597
20
40.653303259287043
42
0.41441490428592481
10
100.15607822053909
20
40.903303377266738
10
100.08827039320911
20
40.903303259311144
42
-0.22169466264294849
10
97.981648174631815
20
41.885637332673156
10
94.145997527424072
20
46.456787771419343
42
0.22169466264294041
10
93.188441973525343
20
46.903303259311173
10
85.553672606145398
20
46.903303259311151
42
0.22169466264293802
10
84.596117052246683
20
46.456787771419343
10
80.760466405038898
20
41.885637332673149
42
-0.22169466264293963
10
78.653844186461711
20
40.903303259311159
10
-78.65384418646174
20
40.903303259311159
42
-0.22169466264293486
10
-80.760466405038898
20
41.885637332673156
10
-84.596117052246669
20
46.456787771419343
42
0.2216946626429428
10
-85.553672606145426
20
46.903303259311187
10
-93.188441973525357
20
46.903303259311151
42
0.22169466264293802
10
-94.145997527424072
20
46.456787771419343
10
-97.981648174631829
20
41.885637332673191
42
-0.22169466264294033
10
-100.08827039320903
20
40.903303259311159
10
-100.15625000000094
20
40.903303259311244
42
0.41421356237195039
10
-100.40624999999999
20
40.65330325931123
10
-100.40624999999999
20
-40.625000000000156
42
0.41421356237304302
10
-100.15625
20
-40.875000000000171
10
-100.08827039321008
20
-40.875000000000064
42
-0.22169466264303853
10
-97.981648174631815
20
-41.857334073362082
10
-94.145997527424072
20
-46.428484512108255
42
0.22169466264294041
10
-93.188441973525343
20
-46.875000000000085
10
-85.553672606145398
20
-46.875000000000078
42
0.22169466264294188
10
-84.596117052246669
20
-46.428484512108248
10
-80.760466405038898
20
-41.857334073362082
42
-0.22169466264294393
10
-78.653844186461711
20
-40.875000000000071
0
LWPOLYLINE
5
101
100
AcDbEntity
8
0
100
AcDbPolyline
90
8
70
1
43
0.0
10
9.6687500000000384
20
-3.0249999999998778
42
-0.41421356237309342
10
10.168750000000044
20
-2.5249999999998707
10
23.168750000000049
20
-2.5249999999998729
42
-0.4142135623730937
10
23.66875000000006
20
-3.0249999999998778
10
23.66875000000006
20
-16.024999999999885
42
-0.41421356237309503
10
23.168750000000053
20
-16.524999999999892
10
10.168750000000044
20
-16.524999999999874
42
-0.41421356237309503
10
9.6687500000000544
20
-16.024999999999885
0
LWPOLYLINE
5
102
100
AcDbEntity
8
0
100
AcDbPolyline
90
8
70
1
43
0.0
10
-0.14374999999993823
20
22.075001000000114
42
-0.41421356237309126
10
-0.64374999999994742
20
21.575001000000107
10
-13.643749999999953
20
21.57500100000011
42
-0.4142135623730937
10
-14.143749999999962
20
22.075001000000114
10
-14.143749999999965
20
35.075000000000117
42
-0.41421356237309243
10
-13.643749999999955
20
35.575000000000124
10
-0.64374999999994742
20
35.575000000000124
42
-0.41421356237309115
10
-0.14374999999994031
20
35.075000000000117
0
LWPOLYLINE
5
103
100
AcDbEntity
8
0
100
AcDbPolyline
90
8
70
1
43
0.0
10
13.643750000000045
20
16.525000000000112
42
-0.41421356237309631
10
14.143750000000034
20
16.025000000000126
10
14.14375000000005
20
3.0250000000001265
42
-0.4142135623730957
10
13.643750000000045
20
2.5250000000001194
10
0.64375000000003635
20
2.5250000000001194
42
-0.41421356237309459
10
0.14375000000002913
20
3.0250000000001265
10
0.14375000000002983
20
16.025000000000126
42
-0.41421356237309742
10
0.64375000000003624
20
16.525000000000134
0
CIRCLE
5
104
100
AcDbEntity
8
0
100
AcDbCircle
10
89.656249999999943
20
-44.625000000000071
30
0
40
1.25
210
0
220
-0
230
1
0
CIRCLE
5
105
100
AcDbEntity
8
0
100
AcDbCircle
10
-89.656249999999943
20
-44.625000000000071
30
0
40
1.25
210
0
220
-0
230
1
0
LWPOLYLINE
5
106
100
AcDbEntity
8
0
100
AcDbPolyline
90
8
70
1
43
0.0
10
-62.556249999999935
20
-21.574999999999875
42
-0.41421356237309243
10
-62.056249999999935
20
-22.074999999999886
10
-62.056249999999935
20
-35.074999999999896
42
-0.41421356237309503
10
-62.556249999999942
20
-35.574999999999903
10
-75.556249999999949
20
-35.574999999999896
42
-0.41421356237310025
10
-76.056249999999963
20
-35.074999999999896
10
-76.056249999999963
20
-22.074999999999886
42
-0.41421356237310281
10
-75.556249999999949
20
-21.574999999999878
0
LWPOLYLINE
5
107
100
AcDbEntity
8
0
100
AcDbPolyline
90
8
70
1
43
0.0
10
-81.606249999999946
20
16.525000000000134
42
-0.41421356237307555
10
-81.106249999999932
20
16.025000000000126
10
-81.106249999999932
20
3.0250000000001265
42
-0.41421356237307355
10
-81.606249999999946
20
2.5250000000001194
10
-94.60624999999996
20
2.5250000000001203
42
-0.41421356237309437
10
-95.106249999999974
20
3.0250000000001265
10
-95.106249999999974
20
16.025000000000126
42
-0.41421356237309631
10
-94.60624999999996
20
16.525000000000134
0
CIRCLE
5
108
100
AcDbEntity
8
0
100
AcDbCircle
10
89.656249999999943
20
44.653303259311144
30
0
40
1.25
210
0
220
-0
230
1
0
LWPOLYLINE
5
109
100
AcDbEntity
8
0
100
AcDbPolyline
90
8
70
1
43
0.0
10
-79.224999999999966
20
35.575000000000124
42
-0.41421356237309503
10
-78.724999999999966
20
35.075000000000117
10
-78.724999999999966
20
22.075001000000114
42
-0.41421356237309503
10
-79.224999999999966
20
21.575001000000107
10
-92.224999999999966
20
21.57500100000011
42
-0.41421356237309243
10
-92.724999999999966
20
22.075001000000114
10
-92.724999999999966
20
35.075000000000117
42
-0.41421356237309243
10
-92.224999999999966
20
35.575000000000124
0
LWPOLYLINE
5
110
100
AcDbEntity
8
0
100
AcDbPolyline
90
8
70
1
43
0.0
10
-33.193748999999961
20
35.075000000000117
42
-0.41421356237308982
10
-32.693748999999954
20
35.575000000000124
10
-19.693749999999966
20
35.575000000000124
42
-0.4142135623730937
10
-19.193749999999955
20
35.075000000000117
10
-19.193749999999952
20
22.075001000000114
42
-0.41421356237309243
10
-19.693749999999962
20
21.575001000000107
10
-32.693748999999954
20
21.575001000000107
42
-0.41421356237308982
10
-33.193748999999961
20
22.075001000000114
0
LWPOLYLINE
5
111
100
AcDbEntity
8
0
100
AcDbPolyline
90
8
70
1
43
0.0
10
37.45625000000004
20
35.575000000000124
42
-0.41421356237308982
10
37.956250000000047
20
35.075000000000117
10
37.956250000000047
20
22.075001000000114
42
-0.41421356237308982
10
37.45625000000004
20
21.575001000000107
10
24.456250000000033
20
21.575001000000107
42
-0.41421356237308982
10
23.956250000000026
20
22.075001000000114
10
23.956250000000026
20
35.075000000000117
42
-0.41421356237308982
10
24.456250000000033
20
35.575000000000124
0
LWPOLYLINE
5
112
100
AcDbEntity
8
0
100
AcDbPolyline
90
8
70
1
43
0.0
10
-57.793749999999982
20
35.575000000000117
42
-0.41421356237310025
10
-57.293749999999974
20
35.075000000000117
10
-57.293749999999967
20
22.075001000000114
42
-0.41421356237310025
10
-57.793749999999982
20
21.575001000000107
10
-70.79374999999996
20
21.575001000000114
42
-0.41421356237310025
10
-71.29374999999996
20
22.075001000000114
10
-71.293749999999974
20
35.075000000000117
42
-0.41421356237310025
10
-70.79374999999996
20
35.575000000000124
0
LWPOLYLINE
5
113
100
AcDbEntity
8
0
100
AcDbPolyline
90
8
70
1
43
0.0
10
-24.456249999999962
20
16.525000000000137
42
-0.41421356237309243
10
-23.956249999999955
20
16.025000000000126
10
-23.956249999999955
20
3.0250000000001265
42
-0.41421356237309115
10
-24.456249999999962
20
2.5250000000001194
10
-37.456249999999969
20
2.5250000000001172
42
-0.41421356237309115
10
-37.956249999999976
20
3.0250000000001265
10
-37.956249999999969
20
16.025000000000126
42
-0.41421356237309243
10
-37.456249999999969
20
16.525000000000134
0
CIRCLE
5
114
100
AcDbEntity
8
0
100
AcDbCircle
10
-89.656249999999915
20
44.653303259311144
30
0
40
1.25
210
0
220
-0
230
1
0
LWPOLYLINE
5
115
100
AcDbEntity
8
0
100
AcDbPolyline
90
8
70
1
43
0.0
10
62.556250000000077
20
21.575001000000114
42
-0.41421356237310025
10
62.056250000000063
20
22.075001000000114
10
62.056250000000055
20
35.075000000000117
42
-0.41421356237310025
10
62.556250000000077
20
35.575000000000124
10
75.556250000000048
20
35.575000000000109
42
-0.41421356237309243
10
76.056250000000034
20
35.075000000000117
10
76.056250000000034
20
22.075001000000114
42
-0.41421356237307944
10
75.556250000000063
20
21.575001000000114
0
LWPOLYLINE
5
116
100
AcDbEntity
8
0
100
AcDbPolyline
90
8
70
1
43
0.0
10
76.056250000000048
20
-35.074999999999896
42
-0.4142135623730846
10
75.556250000000048
20
-35.574999999999903
10
62.556250000000077
20
-35.574999999999896
42
-0.41421356237310025
10
62.056250000000063
20
-35.074999999999896
10
62.056250000000063
20
-22.074999999999886
42
-0.41421356237310281
10
62.556250000000077
20
-21.574999999999878
10
75.556250000000063
20
-21.574999999999878
42
-0.41421356237307944
10
76.056250000000048
20
-22.074999999999886
0
LWPOLYLINE
5
117
100
AcDbEntity
8
0
100
AcDbPolyline
90
8
70
1
43
0.0
10
29.218750000000039
20
-16.524999999999892
42
-0.41421356237309503
10
28.718750000000032
20
-16.024999999999885
10
28.71875000000005
20
-3.0249999999998778
42
-0.41421356237309048
10
29.218750000000039
20
-2.5249999999998884
10
42.218750000000036
20
-2.5249999999998658
42
-0.41421356237309798
10
42.718750000000043
20
-3.0249999999998778
10
42.718750000000028
20
-16.024999999999885
42
-0.41421356237310025
10
42.218750000000036
20
-16.524999999999892
0
LWPOLYLINE
5
118
100
AcDbEntity
8
0
100
AcDbPolyline
90
8
70
1
43
0.0
10
47.76875000000004
20
-3.0249999999998778
42
-0.41421356237310314
10
48.268750000000047
20
-2.5249999999998707
10
61.268750000000047
20
-2.5249999999998658
42
-0.41421356237309798
10
61.768750000000054
20
-3.0249999999998778
10
61.76875000000004
20
-16.024999999999885
42
-0.41421356237310025
10
61.268750000000047
20
-16.524999999999892
10
48.268750000000047
20
-16.524999999999892
42
-0.41421356237310542
10
47.76875000000004
20
-16.024999999999885
0
LWPOLYLINE
5
119
100
AcDbEntity
8
0
100
AcDbPolyline
90
8
70
1
43
0.0
10
57.793750000000053
20
2.5250000000001234
42
-0.41421356237310314
10
57.293750000000045
20
3.0250000000001265
10
57.293750000000045
20
16.025000000000126
42
-0.41421356237310542
10
57.793750000000053
20
16.525000000000134
10
70.79375000000006
20
16.525000000000119
42
-0.4142135623730937
10
71.293750000000045
20
16.025000000000126
10
71.29375000000006
20
3.0250000000001265
42
-0.41421356237309115
10
70.79375000000006
20
2.5250000000001194
0
LWPOLYLINE
5
120
100
AcDbEntity
8
0
100
AcDbPolyline
90
8
70
1
43
0.0
10
52.243750000000055
20
3.0250000000001265
42
-0.41421356237310314
10
51.743750000000048
20
2.5250000000001194
10
38.743750000000041
20
2.5250000000001172
42
-0.41421356237309115
10
38.243750000000034
20
3.0250000000001265
10
38.243750000000041
20
16.025000000000126
42
-0.41421356237309243
10
38.743750000000041
20
16.525000000000134
10
51.743750000000048
20
16.525000000000134
42
-0.41421356237310542
10
52.243750000000055
20
16.025000000000126
0
LWPOLYLINE
5
121
100
AcDbEntity
8
0
100
AcDbPolyline
90
8
70
1
43
0.0
10
92.225000000000037
20
16.525000000000134
42
-0.41421356237309631
10
92.725000000000051
20
16.025000000000126
10
92.725000000000051
20
3.0250000000001265
42
-0.41421356237309437
10
92.225000000000037
20
2.5250000000001194
10
79.22500000000008
20
2.5250000000001185
42
-0.41421356237310608
10
78.725000000000051
20
3.0250000000001265
10
78.725000000000051
20
16.025000000000126
42
-0.41421356237310802
10
79.225000000000065
20
16.525000000000123
0
LWPOLYLINE
5
122
100
AcDbEntity
8
0
100
AcDbPolyline
90
14
70
1
43
0.0
10
43.506250000000051
20
-35.574999999999903
42
-0.41421356237309503
10
43.006250000000044
20
-35.074999999999896
10
43.006250000000051
20
-22.074999999999886
42
-0.41421356237309764
10
43.506250000000051
20
-21.574999999999878
10
46.500000000000043
20
-21.574999999999882
10
46.500000000000043
20
-20.074999999999896
42
-0.41421356237310025
10
47.000000000000036
20
-19.574999999999889
10
53.000000000000043
20
-19.574999999999889
42
-0.41421356237310542
10
53.50000000000005
20
-20.074999999999896
10
53.50000000000005
20
-21.574999999999882
10
56.506250000000051
20
-21.574999999999882
42
-0.41421356237310281
10
57.006250000000058
20
-22.074999999999886
10
57.006250000000065
20
-35.074999999999896
42
-0.41421356237310025
10
56.506250000000051
20
-35.574999999999903
0
LWPOLYLINE
5
123
100
AcDbEntity
8
0
100
AcDbPolyline
90
8
70
1
43
0.0
10
-14.431249999999949
20
-16.024999999999885
42
-0.41421356237310025
10
-14.931249999999956
20
-16.524999999999892
10
-27.93124999999997
20
-16.524999999999892
42
-0.41421356237309243
10
-28.431249999999974
20
-16.024999999999885
10
-28.431249999999977
20
-3.0249999999998778
42
-0.4142135623730937
10
-27.931249999999967
20
-2.5249999999998707
10
-14.931249999999956
20
-2.5249999999998716
42
-0.4142135623730957
10
-14.431249999999949
20
-3.0249999999998778
0
LWPOLYLINE
5
124
100
AcDbEntity
8
0
100
AcDbPolyline
90
8
70
1
43
0.0
10
-52.531249999999936
20
-16.024999999999885
42
-0.41421356237310542
10
-53.031249999999943
20
-16.524999999999892
10
-66.031249999999929
20
-16.524999999999892
42
-0.41421356237310542
10
-66.531249999999943
20
-16.024999999999885
10
-66.531249999999943
20
-3.0249999999998778
42
-0.41421356237310314
10
-66.031249999999929
20
-2.5249999999998707
10
-53.031249999999943
20
-2.5249999999998747
42
-0.41421356237310314
10
-52.531249999999936
20
-3.0249999999998778
0
LWPOLYLINE
5
125
100
AcDbEntity
8
0
100
AcDbPolyline
90
8
70
1
43
0.0
10
74.462500000000063
20
-16.524999999999871
42
-0.41421356237310936
10
73.962500000000048
20
-16.024999999999885
10
73.962500000000034
20
-3.0249999999998778
42
-0.41421356237311291
10
74.462500000000063
20
-2.5249999999998707
10
87.46250000000002
20
-2.5249999999998654
42
-0.41421356237310869
10
87.962500000000034
20
-3.0249999999998778
10
87.962500000000034
20
-16.024999999999885
42
-0.41421356237309631
10
87.462500000000034
20
-16.524999999999892
0
LWPOLYLINE
5
126
100
AcDbEntity
8
0
100
AcDbPolyline
90
8
70
1
43
0.0
10
-94.60624999999996
20
-35.574999999999896
42
-0.41421356237309243
10
-95.106249999999974
20
-35.074999999999896
10
-95.106249999999974
20
-22.074999999999886
42
-0.41421356237309503
10
-94.60624999999996
20
-21.574999999999878
10
-81.606249999999946
20
-21.574999999999878
42
-0.41421356237307422
10
-81.106249999999932
20
-22.074999999999886
10
-81.106249999999932
20
-35.074999999999896
42
-0.41421356237307161
10
-81.606249999999946
20
-35.574999999999903
0
LWPOLYLINE
5
127
100
AcDbEntity
8
0
100
AcDbPolyline
90
8
70
1
43
0.0
10
18.406250000000068
20
35.575000000000124
42
-0.41421356237309243
10
18.906250000000075
20
35.075000000000117
10
18.906250000000078
20
22.075001000000114
42
-0.41421356237309243
10
18.406250000000068
20
21.575001000000107
10
5.4062500000000568
20
21.575001000000107
42
-0.41421356237309048
10
4.9062500000000497
20
22.075001000000114
10
4.9062500000000488
20
35.075000000000117
42
-0.41421356237309048
10
5.4062500000000568
20
35.575000000000124
0
LWPOLYLINE
5
128
100
AcDbEntity
8
0
100
AcDbPolyline
90
44
70
1
43
0.0
10
33.988000000000049
20
-19.574999999999886
42
-0.41421356237309243
10
34.488000000000056
20
-20.074999999999896
10
34.488000000000056
20
-34.074999999999882
42
-0.41421356237308982
10
33.988000000000049
20
-34.574999999999889
10
26.05000000000004
20
-34.574999999999889
10
26.05000000000004
20
-35.074999999999896
42
-0.41421356237308982
10
25.550000000000033
20
-35.574999999999903
10
12.550000000000045
20
-35.574999999999903
42
-0.41421356237309115
10
12.050000000000038
20
-35.074999999999896
10
12.050000000000036
20
-34.574999999999889
10
7.0000000000000639
20
-34.574999999999889
10
7.0000000000000648
20
-35.074999999999896
42
-0.41421356237309048
10
6.5000000000000568
20
-35.574999999999903
10
-6.4999999999999503
20
-35.574999999999903
42
-0.41421356237309048
10
-6.9999999999999574
20
-35.074999999999896
10
-6.9999999999999396
20
-34.574999999999889
10
-14.431249999999947
20
-34.574999999999889
10
-14.431249999999945
20
-35.074999999999896
42
-0.41421356237309243
10
-14.931249999999956
20
-35.574999999999903
10
-27.93124999999997
20
-35.574999999999896
42
-0.41421356237308982
10
-28.431249999999974
20
-35.074999999999896
10
-28.431249999999935
20
-34.574999999999889
10
-36.369248999999968
20
-34.574999999999889
42
-0.41421356237308982
10
-36.869248999999975
20
-34.074999999999882
10
-36.869249999999944
20
-20.074999999999896
42
-0.41421356237309243
10
-36.369248999999968
20
-19.574998999999913
10
-30.369248999999954
20
-19.574999999999886
42
-0.41421356237309243
10
-29.869248999999947
20
-20.074999999999896
10
-29.869249999999965
20
-21.574999999999882
10
-12.993249999999962
20
-21.574999999999882
10
-12.993249999999961
20
-20.074999999999896
42
-0.41421356237309892
10
-12.493249999999955
20
-19.574999999999889
10
-6.4932499999999571
20
-19.574999999999886
42
-0.41421356237309825
10
-5.99324999999995
20
-20.074999999999896
10
-5.9932499999999678
20
-21.574999999999882
10
3.6120000000000552
20
-21.574999999999882
10
3.612000000000041
20
-20.074999999999896
42
-0.41421356237309825
10
4.1120000000000445
20
-19.574999999999889
10
10.11200000000006
20
-19.574999999999886
42
-0.41421356237309892
10
10.612000000000068
20
-20.074999999999896
10
10.612000000000046
20
-21.574999999999882
10
27.488000000000056
20
-21.574999999999882
10
27.488000000000032
20
-20.074999999999896
42
-0.41421356237309243
10
27.988000000000035
20
-19.574999999999889
0
LWPOLYLINE
5
129
100
AcDbEntity
8
0
100
AcDbPolyline
90
8
70
1
43
0.0
10
81.606251000000029
20
21.57500100000011
42
-0.41421356237307161
10
81.106251000000015
20
22.075001000000114
10
81.106251000000043
20
35.075000000000117
42
-0.41421356237310025
10
81.606251000000029
20
35.575000000000117
10
94.606250000000045
20
35.575000000000124
42
-0.41421356237309243
10
95.106250000000045
20
35.075000000000117
10
95.106250000000045
20
22.075001000000114
42
-0.41421356237310542
10
94.606250000000045
20
21.575001000000114
0
LWPOLYLINE
5
130
100
AcDbEntity
8
0
100
AcDbPolyline
90
8
70
1
43
0.0
10
-47.481249999999982
20
-3.0249999999998778
42
-0.41421356237310314
10
-46.981249999999974
20
-2.5249999999998707
10
-33.981249999999967
20
-2.5249999999998685
42
-0.41421356237309115
10
-33.48124999999996
20
-3.0249999999998778
10
-33.481249999999967
20
-16.024999999999885
42
-0.41421356237309243
10
-33.981249999999967
20
-16.524999999999892
10
-46.981249999999974
20
-16.524999999999892
42
-0.41421356237310542
10
-47.481249999999982
20
-16.024999999999885
0
LWPOLYLINE
5
131
100
AcDbEntity
8
0
100
AcDbPolyline
90
8
70
1
43
0.0
10
-76.843749999999957
20
-2.5249999999998747
42
-0.41421356237310314
10
-76.343749999999943
20
-3.0249999999998778
10
-76.343749999999943
20
-16.024999999999885
42
-0.41421356237310542
10
-76.843749999999957
20
-16.524999999999892
10
-89.843749999999972
20
-16.524999999999896
42
-0.41421356237309631
10
-90.343749999999972
20
-16.024999999999885
10
-90.343749999999943
20
-3.0249999999998778
42
-0.41421356237309631
10
-89.843749999999972
20
-2.5249999999999062
0
LWPOLYLINE
5
132
100
AcDbEntity
8
0
100
AcDbPolyline
90
8
70
1
43
0.0
10
81.606251000000029
20
-35.574999999999896
42
-0.41421356237307161
10
81.106251000000015
20
-35.074999999999896
10
81.106251000000015
20
-22.074999999999886
42
-0.41421356237307422
10
81.606251000000029
20
-21.574999999999878
10
94.606250000000003
20
-21.574999999999868
42
-0.41421356237312101
10
95.106250000000045
20
-22.074999999999886
10
95.106250000000045
20
-35.074999999999896
42
-0.41421356237309243
10
94.606250000000045
20
-35.574999999999903
0
LWPOLYLINE
5
133
100
AcDbEntity
8
0
100
AcDbPolyline
90
8
70
1
43
0.0
10
-18.406249999999961
20
2.5250000000001203
42
-0.41421356237309698
10
-18.906249999999968
20
3.0250000000001265
10
-18.906249999999968
20
16.025000000000126
42
-0.41421356237310025
10
-18.406249999999961
20
16.525000000000134
10
-5.4062499999999503
20
16.525000000000134
42
-0.41421356237309698
10
-4.9062499999999432
20
16.025000000000126
10
-4.9062499999999432
20
3.0250000000001265
42
-0.4142135623730937
10
-5.4062499999999503
20
2.5250000000001194
0
LWPOLYLINE
5
134
100
AcDbEntity
8
0
100
AcDbPolyline
90
8
70
1
43
0.0
10
-57.006249999999987
20
16.025000000000126
42
-0.41421356237310542
10
-56.50624999999998
20
16.525000000000134
10
-43.506249999999973
20
16.525000000000134
42
-0.41421356237310542
10
-43.006249999999966
20
16.025000000000126
10
-43.006249999999966
20
3.0250000000001265
42
-0.41421356237310314
10
-43.506249999999973
20
2.5250000000001194
10
-56.50624999999998
20
2.5250000000001234
42
-0.41421356237310314
10
-57.006249999999987
20
3.0250000000001265
0
LWPOLYLINE
5
135
100
AcDbEntity
8
0
100
AcDbPolyline
90
8
70
1
43
0.0
10
-38.243749999999963
20
22.075001000000114
42
-0.41421356237310025
10
-38.743749999999935
20
21.575001000000142
10
-51.743749999999942
20
21.575001000000114
42
-0.41421356237310025
10
-52.243749999999949
20
22.075001000000114
10
-52.243749999999956
20
35.075000000000117
42
-0.41421356237310025
10
-51.743749999999942
20
35.575000000000124
10
-38.743749999999935
20
35.575000000000124
42
-0.41421356237308982
10
-38.243749999999928
20
35.075000000000117
0
LWPOLYLINE
5
136
100
AcDbEntity
8
0
100
AcDbPolyline
90
14
70
1
43
0.0
10
-53.499999999999943
20
-21.574999999999882
10
-56.50624999999998
20
-21.574999999999878
42
0.41421356237310281
10
-57.006249999999987
20
-22.074999999999886
10
-57.006249999999987
20
-35.074999999999896
42
0.41421356237310025
10
-56.50624999999998
20
-35.574999999999903
10
-43.506249999999973
20
-35.574999999999903
42
0.41421356237310025
10
-43.006249999999966
20
-35.074999999999896
10
-43.006249999999966
20
-22.074999999999886
42
0.41421356237310281
10
-43.506249999999973
20
-21.574999999999878
10
-46.49999999999995
20
-21.574999999999882
10
-46.499999999999957
20
-20.074999999999896
42
0.41421356237310025
10
-46.999999999999964
20
-19.574999999999889
10
-52.999999999999936
20
-19.574999999999889
42
0.41421356237310542
10
-53.499999999999943
20
-20.074999999999896
0
LWPOLYLINE
5
137
100
AcDbEntity
8
0
100
AcDbPolyline
90
8
70
1
43
0.0
10
-76.056249999999963
20
16.025000000000126
42
-0.41421356237310542
10
-75.556249999999949
20
16.525000000000134
10
-62.556249999999942
20
16.525000000000141
42
-0.41421356237310025
10
-62.056249999999935
20
16.025000000000126
10
-62.056249999999942
20
3.0250000000001265
42
-0.41421356237309798
10
-62.556249999999942
20
2.5250000000001194
10
-75.556249999999949
20
2.5250000000001234
42
-0.41421356237310314
10
-76.056249999999963
20
3.0250000000001265
0
LWPOLYLINE
5
138
100
AcDbEntity
8
0
100
AcDbPolyline
90
8
70
1
43
0.0
10
33.193750000000065
20
3.0250000000001265
42
-0.41421356237309115
10
32.693750000000051
20
2.5250000000001194
10
19.693750000000048
20
2.5250000000001203
42
-0.41421356237309698
10
19.193750000000041
20
3.0250000000001265
10
19.193750000000041
20
16.025000000000126
42
-0.41421356237310025
10
19.693750000000048
20
16.525000000000134
10
32.693750000000051
20
16.525000000000112
42
-0.41421356237308982
10
33.193750000000044
20
16.025000000000126
0
LWPOLYLINE
5
139
100
AcDbEntity
8
0
100
AcDbPolyline
90
8
70
1
43
0.0
10
4.1187500000000385
20
-2.5249999999998707
42
-0.41421356237309437
10
4.6187500000000448
20
-3.0249999999998778
10
4.6187500000000439
20
-16.024999999999885
42
-0.41421356237309698
10
4.1187500000000377
20
-16.524999999999892
10
-8.8812499999999517
20
-16.524999999999892
42
-0.41421356237309176
10
-9.381249999999957
20
-16.024999999999885
10
-9.3812499999999588
20
-3.0249999999998778
42
-0.4142135623730947
10
-8.8812499999999499
20
-2.5249999999998707
0
LWPOLYLINE
5
140
100
AcDbEntity
8
0
100
AcDbPolyline
90
8
70
1
43
0.0
10
56.506250000000051
20
35.575000000000117
42
-0.41421356237310025
10
57.006250000000058
20
35.075000000000117
10
57.006250000000065
20
22.075001000000114
42
-0.41421356237310025
10
56.506250000000051
20
21.575001000000107
10
43.506250000000051
20
21.575001000000107
42
-0.41421356237309503
10
43.006250000000044
20
22.075001000000114
10
43.006250000000051
20
35.075000000000117
42
-0.41421356237309243
10
43.506250000000051
20
35.575000000000109
0
ENDSEC
0
SECTION
2
OBJECTS
0
DICTIONARY
5
C
100
AcDbDictionary
3
ACAD_GROUP
350
D
3
ACAD_MLINESTYLE
350
17
0
DICTIONARY
5
D
100
AcDbDictionary
0
DICTIONARY
5
1A
330
C
100
AcDbDictionary
0
DICTIONARY
5
17
100
AcDbDictionary
0
ENDSEC
0
EOF
