0
SECTION
2
HEADER
9
$INSUNITS
70
4
9
$ACADVER
1
AC1014
9
$HANDSEED
5
FFFF
0
ENDSEC
0
SECTION
2
TABLES
0
TABLE
2
VPORT
5
8
100
AcDbSymbolTable
0
ENDTAB
0
TABLE
2
LTYPE
5
5
100
AcDbSymbolTable
0
LTYPE
5
14
100
AcDbSymbolTableRecord
100
AcDbLinetypeTableRecord
2
BYBLOCK
70
0
0
LTYPE
5
15
100
AcDbSymbolTableRecord
100
AcDbLinetypeTableRecord
2
BYLAYER
70
0
0
ENDTAB
0
TABLE
2
LAYER
5
2
100
AcDbSymbolTable
70
2
0
LAYER
5
50
100
AcDbSymbolTableRecord
100
AcDbLayerTableRecord
2
0
70
0
6
CONTINUOUS
0
ENDTAB
0
TABLE
2
STYLE
5
3
100
AcDbSymbolTable
70
1
0
STYLE
5
11
100
AcDbSymbolTableRecord
100
AcDbTextStyleTableRecord
2
STANDARD
70
0
0
ENDTAB
0
TABLE
2
VIEW
5
6
100
AcDbSymbolTable
70
0
0
ENDTAB
0
TABLE
2
UCS
5
7
100
AcDbSymbolTable
70
0
0
ENDTAB
0
TABLE
2
APPID
5
9
100
AcDbSymbolTable
70
2
0
APPID
5
12
100
AcDbSymbolTableRecord
100
AcDbRegAppTableRecord
2
ACAD
70
0
0
ENDTAB
0
TABLE
2
DIMSTYLE
5
A
100
AcDbSymbolTable
70
1
0
ENDTAB
0
TABLE
2
BLOCK_RECORD
5
1
100
AcDbSymbolTable
70
1
0
BLOCK_RECORD
5
1F
100
AcDbSymbolTableRecord
100
AcDbBlockTableRecord
2
*MODEL_SPACE
0
BLOCK_RECORD
5
1B
100
AcDbSymbolTableRecord
100
AcDbBlockTableRecord
2
*PAPER_SPACE
0
ENDTAB
0
ENDSEC
0
SECTION
2
BLOCKS
0
BLOCK
5
20
100
AcDbEntity
100
AcDbBlockBegin
2
*MODEL_SPACE
0
ENDBLK
5
21
100
AcDbEntity
100
AcDbBlockEnd
0
BLOCK
5
1C
100
AcDbEntity
100
AcDbBlockBegin
2
*PAPER_SPACE
0
ENDBLK
5
1D
100
AcDbEntity
100
AcDbBlockEnd
0
ENDSEC
0
SECTION
2
ENTITIES
0
CIRCLE
5
100
100
AcDbEntity
8
0
100
AcDbCircle
10
-0.97021156981408563
20
-37.474628937831078
30
0
40
1.575
210
1.5407439555097887e-33
220
-0
230
1
0
CIRCLE
5
101
100
AcDbEntity
8
0
100
AcDbCircle
10
-0.97021156981408563
20
54.029371062168927
30
0
40
1.575
210
1.5407439555097887e-33
220
-0
230
1
0
CIRCLE
5
102
100
AcDbEntity
8
0
100
AcDbCircle
10
63.14578843018591
20
-37.474628937831078
30
0
40
1.5749999999999975
210
0
220
-0
230
1
0
CIRCLE
5
103
100
AcDbEntity
8
0
100
AcDbCircle
10
127.2617884301859
20
-37.474628937831078
30
0
40
1.5750000000000064
210
0
220
-0
230
1
0
CIRCLE
5
104
100
AcDbEntity
8
0
100
AcDbCircle
10
63.14578843018591
20
54.029371062168927
30
0
40
1.5749999999999975
210
0
220
-0
230
1
0
CIRCLE
5
105
100
AcDbEntity
8
0
100
AcDbCircle
10
127.2617884301859
20
54.029371062168927
30
0
40
1.5750000000000064
210
0
220
-0
230
1
0
SPLINE
5
106
100
AcDbEntity
8
0
100
AcDbSpline
70
4
71
5
72
31
73
25
74
0
42
0.000000001
43
0.0000000001
44
0.0000000001
40
0
40
0
40
0
40
0
40
0
40
0
40
0.050000000000000003
40
0.10000000000000001
40
0.15000000000000002
40
0.20000000000000001
40
0.25
40
0.29999999999999999
40
0.34999999999999998
40
0.39999999999999997
40
0.44999999999999996
40
0.49999999999999994
40
0.54999999999999993
40
0.59999999999999998
40
0.65000000000000002
40
0.70000000000000007
40
0.75000000000000011
40
0.80000000000000016
40
0.8500000000000002
40
0.90000000000000024
40
0.95000000000000029
40
1
40
1
40
1
40
1
40
1
40
1
41
1
41
1
41
1
41
1
41
1
41
1
41
1
41
1
41
1
41
1
41
1
41
1
41
1
41
1
41
1
41
1
41
1
41
1
41
1
41
1
41
1
41
1
41
1
41
1
41
1
10
17.494712980388034
20
-13.015620795832278
30
0
10
17.54703437590425
20
-12.907937735403118
30
0
10
17.661493531925732
20
-12.699672159470826
30
0
10
17.862629830645975
20
-12.408576543935357
30
0
10
18.189960358832856
20
-12.063218659406452
30
0
10
18.696901030558312
20
-11.705522813462736
30
0
10
19.296946500318615
20
-11.428028403228726
30
0
10
19.978286570305183
20
-11.242132180373375
30
0
10
20.720657210182388
20
-11.164486959167576
30
0
10
21.498825313895157
20
-11.213130428119328
30
0
10
22.284973107512094
20
-11.40435501833187
30
0
10
23.051446503945236
20
-11.749059787495906
30
0
10
23.773239298614026
20
-12.249307404671448
30
0
10
24.42821761833676
20
-12.900846318286817
30
0
10
24.997476600007282
20
-13.695236930440407
30
0
10
25.465753101652091
20
-14.621871683071861
30
0
10
25.821995507028845
20
-15.669854122105383
30
0
10
26.059955715311144
20
-16.829706031453298
30
0
10
26.176889574853483
20
-18.093452435805755
30
0
10
26.172483735839862
20
-19.454709358824307
30
0
10
26.047872017736356
20
-20.908682309178694
30
0
10
25.853397579164415
20
-22.143431852415851
30
0
10
25.654924121601983
20
-23.10893590950197
30
0
10
25.499318113623239
20
-23.770063655708604
30
0
10
25.415692504931435
20
-24.10499213019289
30
0
0
SPLINE
5
107
100
AcDbEntity
8
0
100
AcDbSpline
70
4
71
5
72
36
73
30
74
0
42
0.000000001
43
0.0000000001
44
0.0000000001
40
-1
40
-1
40
-1
40
-1
40
-1
40
-1
40
-0.9600000000000003
40
-0.92000000000000026
40
-0.88000000000000023
40
-0.84000000000000019
40
-0.80000000000000016
40
-0.76000000000000012
40
-0.72000000000000008
40
-0.68000000000000005
40
-0.64000000000000001
40
-0.59999999999999998
40
-0.55999999999999994
40
-0.51999999999999991
40
-0.47999999999999993
40
-0.43999999999999995
40
-0.39999999999999997
40
-0.35999999999999999
40
-0.32000000000000001
40
-0.28000000000000003
40
-0.24000000000000002
40
-0.20000000000000001
40
-0.16
40
-0.12
40
-0.080000000000000002
40
-0.040000000000000001
40
0
40
0
40
0
40
0
40
0
40
0
41
1
41
1
41
1
41
1
41
1
41
1
41
1
41
1
41
1
41
1
41
1
41
1
41
1
41
1
41
1
41
1
41
1
41
1
41
1
41
1
41
1
41
1
41
1
41
1
41
1
41
1
41
1
41
1
41
1
41
1
10
25.415692504931435
20
-24.10499213019289
30
0
10
25.171917401797366
20
-24.083955717004816
30
0
10
24.697224981188526
20
-24.040003070086993
30
0
10
24.023771724157928
20
-23.968444342338909
30
0
10
23.203101871313407
20
-23.861659592576267
30
0
10
22.307888502973896
20
-23.711312536732731
30
0
10
21.54483868377952
20
-23.549115682351996
30
0
10
20.918873448686291
20
-23.388132455512988
30
0
10
20.429260477482675
20
-23.244457544735482
30
0
10
20.09531050175903
20
-23.159619836626394
30
0
10
19.727428271201958
20
-23.038238350404043
30
0
10
19.082970987256274
20
-22.737371671995234
30
0
10
18.028283907897876
20
-22.15364468539817
30
0
10
16.604616701084083
20
-21.266263152524509
30
0
10
15.367532697939701
20
-20.30903648978278
30
0
10
14.572227852610178
20
-19.397966494078752
30
0
10
14.21840521091829
20
-18.547465885476779
30
0
10
14.170787639762789
20
-17.72368126984761
30
0
10
14.256717846786584
20
-16.888850844141693
30
0
10
14.330957903199973
20
-16.024740850795041
30
0
10
14.456246991136098
20
-15.224949262667035
30
0
10
14.704858546228529
20
-14.563794509171824
30
0
10
15.065433401176314
20
-14.048474965086079
30
0
10
15.510466788130909
20
-13.664750777407244
30
0
10
15.99664117277117
20
-13.382984440629123
30
0
10
16.496967374548777
20
-13.183609585324454
30
0
10
16.897875723566514
20
-13.082078921355926
30
0
10
17.196926175278627
20
-13.036852499366949
30
0
10
17.395571086417096
20
-13.020412958219438
30
0
10
17.494712980388034
20
-13.015620795832278
30
0
0
SPLINE
5
108
100
AcDbEntity
8
0
100
AcDbSpline
70
4
71
3
72
8
73
4
74
0
42
0.000000001
43
0.0000000001
44
0.0000000001
40
-1
40
-1
40
-1
40
-1
40
0
40
0
40
0
40
0
41
1
41
1
41
1
41
1
10
0.10698365950626149
20
9.076917532815072
30
0
10
2.3428949590119243
20
5.6933724372017824
30
0
10
1.8245164794596369
20
1.4229693035659223
30
0
10
-1.0507303669338799
20
-0.46088304438297167
30
0
0
SPLINE
5
109
100
AcDbEntity
8
0
100
AcDbSpline
70
4
71
3
72
8
73
4
74
0
42
0.000000001
43
0.0000000001
44
0.0000000001
40
-1
40
-1
40
-1
40
-1
40
0
40
0
40
0
40
0
41
1
41
1
41
1
41
1
10
-1.0507303669338799
20
-0.46088304438297167
30
0
10
-3.9263531925316491
20
-2.3447353923318612
30
0
10
-8.0700086094208086
20
-1.1287816174856951
30
0
10
-10.305917060599166
20
2.2547634781275865
30
0
0
SPLINE
5
110
100
AcDbEntity
8
0
100
AcDbSpline
70
4
71
3
72
8
73
4
74
0
42
0.000000001
43
0.0000000001
44
0.0000000001
40
-1
40
-1
40
-1
40
-1
40
0
40
0
40
0
40
0
41
1
41
1
41
1
41
1
10
-10.305917060599166
20
2.2547634781275865
30
0
10
-12.542013501379653
20
5.6384937150156968
30
0
10
-12.023637870154662
20
9.9087117073767317
30
0
10
-9.1482030341590281
20
11.792564055325618
30
0
0
SPLINE
5
111
100
AcDbEntity
8
0
100
AcDbSpline
70
4
71
3
72
8
73
4
74
0
42
0.000000001
43
0.0000000001
44
0.0000000001
40
-1
40
-1
40
-1
40
-1
40
0
40
0
40
0
40
0
41
1
41
1
41
1
41
1
10
-9.1482030341590281
20
11.792564055325618
30
0
10
-6.2727681981633854
20
13.67660439287665
30
0
10
-2.1291127812742205
20
12.460647769703176
30
0
10
0.10698365950626149
20
9.076917532815072
30
0
0
SPLINE
5
112
100
AcDbEntity
8
0
100
AcDbSpline
70
4
71
3
72
8
73
4
74
0
42
0.000000001
43
0.0000000001
44
0.0000000001
40
0
40
0
40
0
40
0
40
1
40
1
40
1
40
1
41
1
41
1
41
1
41
1
10
10.347161232157674
20
19.665225411343854
30
0
10
10.36732169282271
20
16.131225970824087
30
0
10
7.2768466902789459
20
13.251128423030112
30
0
10
3.4441787693716091
20
13.232460485872918
30
0
0
SPLINE
5
113
100
AcDbEntity
8
0
100
AcDbSpline
70
4
71
3
72
8
73
4
74
0
42
0.000000001
43
0.0000000001
44
0.0000000001
40
0
40
0
40
0
40
0
40
1
40
1
40
1
40
1
41
1
41
1
41
1
41
1
10
3.4441787693716091
20
13.232460485872918
30
0
10
-0.38848772737208315
20
13.213792548715727
30
0
10
-3.5116301957772715
20
16.063652253839468
30
0
10
-3.5319786460444291
20
19.597839683961368
30
0
0
LINE
5
114
100
AcDbEntity
8
0
100
AcDbLine
10
-3.53197864604443
20
19.597839683961368
30
0
11
-3.5319757977171284
21
19.66522825967116
31
0
0
SPLINE
5
115
100
AcDbEntity
8
0
100
AcDbSpline
70
4
71
3
72
8
73
4
74
0
42
0.000000001
43
0.0000000001
44
0.0000000001
40
0
40
0
40
0
40
0
40
1
40
1
40
1
40
1
41
1
41
1
41
1
41
1
10
-3.5319757977171284
20
19.66522825967116
30
0
10
-3.5521362583821592
20
23.199412841465758
30
0
10
-0.46147326623625518
20
26.079510389259735
30
0
10
3.3710052409052897
20
26.097990336814796
30
0
0
SPLINE
5
116
100
AcDbEntity
8
0
100
AcDbSpline
70
4
71
3
72
8
73
4
74
0
42
0.000000001
43
0.0000000001
44
0.0000000001
40
0
40
0
40
0
40
0
40
1
40
1
40
1
40
1
41
1
41
1
41
1
41
1
10
3.3710052409052897
20
26.097990336814796
30
0
10
7.2036717376489694
20
26.116658273971982
30
0
10
10.327000771492649
20
23.266798568848259
30
0
10
10.347161232157674
20
19.732611138726345
30
0
0
ARC
5
117
100
AcDbEntity
8
0
100
AcDbCircle
10
6.2928728710486626
20
19.698918275034298
30
-4.9303806576285834e-31
40
4.054428359718254
210
-1.216009424225397e-31
220
9.7291223357532271e-34
230
1
100
AcDbArc
50
-0.47614137867470679
51
0.47614137869691142
0
SPLINE
5
118
100
AcDbEntity
8
0
100
AcDbSpline
70
4
71
3
72
8
73
4
74
0
42
0.000000001
43
0.0000000001
44
0.0000000001
40
-1
40
-1
40
-1
40
-1
40
0
40
0
40
0
40
0
41
1
41
1
41
1
41
1
10
22.884061890303329
20
0.12740019713415748
30
0
10
23.064009952371624
20
-5.6817063749358372
30
0
10
18.606378432075811
20
-8.8655153666109392
30
0
10
13.248447617204985
20
-7.9607356531850915
30
0
0
SPLINE
5
119
100
AcDbEntity
8
0
100
AcDbSpline
70
4
71
3
72
8
73
4
74
0
42
0.000000001
43
0.0000000001
44
0.0000000001
40
-1
40
-1
40
-1
40
-1
40
0
40
0
40
0
40
0
41
1
41
1
41
1
41
1
10
13.248447617204985
20
-7.9607356531850915
30
0
10
11.274432892578899
20
-7.6290280002227862
30
0
10
22.707847273250113
20
2.3545358002130019
30
0
10
22.884061890303329
20
0.12740019713415748
30
0
0
SPLINE
5
120
100
AcDbEntity
8
0
100
AcDbSpline
70
4
71
3
72
8
73
4
74
0
42
0.000000001
43
0.0000000001
44
0.0000000001
40
0
40
0
40
0
40
0
40
1
40
1
40
1
40
1
41
1
41
1
41
1
41
1
10
24.61850701065817
20
15.552669813162561
30
0
10
27.397059909823128
20
13.317880754615093
30
0
10
28.291946314395851
20
6.7731139028556164
30
0
10
23.140656660932422
20
3.8314155804356709
30
0
0
SPLINE
5
121
100
AcDbEntity
8
0
100
AcDbSpline
70
4
71
3
72
8
73
4
74
0
42
0.000000001
43
0.0000000001
44
0.0000000001
40
0
40
0
40
0
40
0
40
1
40
1
40
1
40
1
41
1
41
1
41
1
41
1
10
23.140656660932422
20
3.8314155804356709
30
0
10
20.036181417602599
20
2.9992482749970422
30
0
10
22.092515649671448
20
16.674734175052905
30
0
10
24.61850701065817
20
15.552669813162561
30
0
0
SPLINE
5
122
100
AcDbEntity
8
0
100
AcDbSpline
70
4
71
3
72
8
73
4
74
0
42
0.000000001
43
0.0000000001
44
0.0000000001
40
0
40
0
40
0
40
0
40
1
40
1
40
1
40
1
41
1
41
1
41
1
41
1
10
-3.0195795553833271
20
31.196329517285886
30
0
10
-3.0658734190720471
20
32.509727417564548
30
0
10
0.37311151920640884
20
35.477371153406054
30
0
10
3.7014019134293443
20
35.420068504683385
30
0
0
SPLINE
5
123
100
AcDbEntity
8
0
100
AcDbSpline
70
4
71
3
72
8
73
4
74
0
42
0.000000001
43
0.0000000001
44
0.0000000001
40
0
40
0
40
0
40
0
40
1
40
1
40
1
40
1
41
1
41
1
41
1
41
1
10
3.7014019134293443
20
35.420068504683385
30
0
10
7.1484134380533817
20
35.568842336479904
30
0
10
10.528409517844601
20
32.596527343858156
30
0
10
10.484169298142822
20
31.566310144245936
30
0
0
SPLINE
5
124
100
AcDbEntity
8
0
100
AcDbSpline
70
4
71
3
72
8
73
4
74
0
42
0.000000001
43
0.0000000001
44
0.0000000001
40
0
40
0
40
0
40
0
40
1
40
1
40
1
40
1
41
1
41
1
41
1
41
1
10
10.484169298142822
20
31.566310144245936
30
0
10
10.53587640787476
20
30.055790904495101
30
0
10
6.2871262584117602
20
28.876423893882102
30
0
10
3.5165995895514652
20
28.94567242732208
30
0
0
SPLINE
5
125
100
AcDbEntity
8
0
100
AcDbSpline
70
4
71
3
72
8
73
4
74
0
42
0.000000001
43
0.0000000001
44
0.0000000001
40
0
40
0
40
0
40
0
40
1
40
1
40
1
40
1
41
1
41
1
41
1
41
1
10
3.5165995895514652
20
28.94567242732208
30
0
10
0.72871378993064484
20
28.823963401577998
30
0
10
-3.0121112411895341
20
29.843544947033209
30
0
10
-3.0195795553833271
20
31.196329517285886
30
0
0
SPLINE
5
126
100
AcDbEntity
8
0
100
AcDbSpline
70
4
71
3
72
8
73
4
74
0
42
0.000000001
43
0.0000000001
44
0.0000000001
40
0
40
0
40
0
40
0
40
1
40
1
40
1
40
1
41
1
41
1
41
1
41
1
10
-15.644710926086226
20
-0.10645735995080126
30
0
10
-15.468496309033021
20
2.1208662327301777
30
0
10
-4.0352706300457575
20
-7.862697567705613
30
0
10
-6.0090959409060449
20
-8.1944080689952195
30
0
0
SPLINE
5
127
100
AcDbEntity
8
0
100
AcDbSpline
70
4
71
3
72
8
73
4
74
0
42
0.000000001
43
0.0000000001
44
0.0000000001
40
0
40
0
40
0
40
0
40
1
40
1
40
1
40
1
41
1
41
1
41
1
41
1
10
-6.0090959409060449
20
-8.1944080689952195
30
0
10
-11.366654336981735
20
-9.0990012169825913
30
0
10
-15.824656851909033
20
-5.9159384870614069
30
0
10
-15.644710926086226
20
-0.10645735995080126
30
0
0
LWPOLYLINE
5
128
100
AcDbEntity
8
0
100
AcDbPolyline
90
10
70
1
43
0.0
10
132.21111325783039
20
27.592592388405997
10
99.0141975652013
20
-6.932199931928233
10
99.0141975652013
20
-17.555212953569541
10
140.17837302406136
20
-17.555212953569541
10
140.17837302406136
20
-9.5879531873385631
10
108.30933395913746
20
-9.5879531873385648
10
140.17837302406136
20
26.264715760700838
10
140.17837302406136
20
34.231975526931819
10
100.34207419290649
20
34.231975526931819
10
100.34207419290649
20
27.592592388405997
0
SPLINE
5
129
100
AcDbEntity
8
0
100
AcDbSpline
70
4
71
3
72
8
73
4
74
0
42
0.000000001
43
0.0000000001
44
0.0000000001
40
-1
40
-1
40
-1
40
-1
40
0
40
0
40
0
40
0
41
1
41
1
41
1
41
1
10
-17.936396093881754
20
15.382992107274392
30
0
10
-15.410405444976853
20
16.505053620837423
30
0
10
-13.35369950619469
20
2.8290094486297885
30
0
10
-16.458547168319654
20
3.6609887644662797
30
0
0
SPLINE
5
130
100
AcDbEntity
8
0
100
AcDbSpline
70
4
71
3
72
8
73
4
74
0
42
0.000000001
43
0.0000000001
44
0.0000000001
40
-1
40
-1
40
-1
40
-1
40
0
40
0
40
0
40
0
41
1
41
1
41
1
41
1
10
-16.458547168319654
20
3.6609887644662797
30
0
10
-21.609835397619435
20
6.6025047939386976
30
0
10
-20.714947924923976
20
13.148015059124775
30
0
10
-17.936396093881754
20
15.382992107274392
30
0
0
SPLINE
5
131
100
AcDbEntity
8
0
100
AcDbSpline
70
4
71
3
72
8
73
4
74
0
42
0.000000001
43
0.0000000001
44
0.0000000001
40
0
40
0
40
0
40
0
40
1
40
1
40
1
40
1
41
1
41
1
41
1
41
1
10
21.310731828228654
20
25.045708658004166
30
0
10
23.135037757620335
20
21.784991980765849
30
0
10
22.90002298376384
20
18.466969806477557
30
0
10
21.61910740807178
20
17.492189601203197
30
0
0
SPLINE
5
132
100
AcDbEntity
8
0
100
AcDbSpline
70
4
71
3
72
8
73
4
74
0
42
0.000000001
43
0.0000000001
44
0.0000000001
40
0
40
0
40
0
40
0
40
1
40
1
40
1
40
1
41
1
41
1
41
1
41
1
10
21.61910740807178
20
17.492189601203197
30
0
10
19.703707698974171
20
16.325514737061418
30
0
10
16.744272842425779
20
17.901551201482629
30
0
10
14.466362956807394
20
20.544585316005964
30
0
0
LINE
5
133
100
AcDbEntity
8
0
100
AcDbLine
10
14.466362956807393
20
20.544585316005964
30
0
11
14.466550946409543
21
20.544585316005964
31
0
0
SPLINE
5
134
100
AcDbEntity
8
0
100
AcDbSpline
70
4
71
3
72
8
73
4
74
0
42
0.000000001
43
0.0000000001
44
0.0000000001
40
0
40
0
40
0
40
0
40
1
40
1
40
1
40
1
41
1
41
1
41
1
41
1
10
14.466550946409543
20
20.544585316005964
30
0
10
12.481709729697021
20
22.935801661818566
30
0
10
11.576743450832691
20
27.136950565359847
30
0
10
13.233235192475528
20
28.375494424062232
30
0
0
SPLINE
5
135
100
AcDbEntity
8
0
100
AcDbSpline
70
4
71
3
72
8
73
4
74
0
42
0.000000001
43
0.0000000001
44
0.0000000001
40
0
40
0
40
0
40
0
40
1
40
1
40
1
40
1
41
1
41
1
41
1
41
1
10
13.233235192475528
20
28.375494424062232
30
0
10
14.800312243358755
20
29.32096818969509
30
0
10
18.605912509886345
20
28.931579060478558
30
0
10
21.310731828228654
20
25.045708658004166
30
0
0
SPLINE
5
136
100
AcDbEntity
8
0
100
AcDbSpline
70
4
71
3
72
8
73
4
74
0
42
0.000000001
43
0.0000000001
44
0.0000000001
40
-1
40
-1
40
-1
40
-1
40
0
40
0
40
0
40
0
41
1
41
1
41
1
41
1
10
10.004737726575943
20
-6.7848770677561845
30
0
10
9.9972708365458018
20
-8.2097143496806346
30
0
10
6.928448818174898
20
-10.666077637613975
30
0
10
3.7308268632340353
20
-10.582823878815152
30
0
0
LINE
5
137
100
AcDbEntity
8
0
100
AcDbLine
10
3.7308268632340362
20
-10.582823878815152
30
0
11
3.7308268632340353
21
-10.583010444253617
31
0
0
SPLINE
5
138
100
AcDbEntity
8
0
100
AcDbSpline
70
4
71
3
72
8
73
4
74
0
42
0.000000001
43
0.0000000001
44
0.0000000001
40
-1
40
-1
40
-1
40
-1
40
0
40
0
40
0
40
0
41
1
41
1
41
1
41
1
10
3.7308268632340353
20
-10.583010444253627
30
0
10
0.89347273914305758
20
-10.614182538279913
30
0
10
-2.6198051202325949
20
-8.4658216993127304
30
0
10
-2.6056176019262227
20
-6.4415938126262331
30
0
0
SPLINE
5
139
100
AcDbEntity
8
0
100
AcDbSpline
70
4
71
3
72
8
73
4
74
0
42
0.000000001
43
0.0000000001
44
0.0000000001
40
-1
40
-1
40
-1
40
-1
40
0
40
0
40
0
40
0
41
1
41
1
41
1
41
1
10
-2.6056176019262227
20
-6.4415938126262331
30
0
10
-2.5932957380046497
20
-4.6549947521804116
30
0
10
-0.13823983230431722
20
-3.2086910515215656
30
0
10
3.7089873136226883
20
-3.2361318367782586
30
0
0
SPLINE
5
140
100
AcDbEntity
8
0
100
AcDbSpline
70
4
71
3
72
8
73
4
74
0
42
0.000000001
43
0.0000000001
44
0.0000000001
40
-1
40
-1
40
-1
40
-1
40
0
40
0
40
0
40
0
41
1
41
1
41
1
41
1
10
3.7089873136226883
20
-3.2361318367782586
30
0
10
7.4765068682456368
20
-3.2811183182339612
30
0
10
10.013510574675447
20
-5.0537178499755386
30
0
10
10.004737726575943
20
-6.7848770677561845
30
0
0
SPLINE
5
141
100
AcDbEntity
8
0
100
AcDbSpline
70
4
71
3
72
8
73
4
74
0
42
0.000000001
43
0.0000000001
44
0.0000000001
40
0
40
0
40
0
40
0
40
1
40
1
40
1
40
1
41
1
41
1
41
1
41
1
10
6.7405110195020832
20
9.2595527249117033
30
0
10
8.9766060361189091
20
12.643282961799818
30
0
10
13.120261453008071
20
13.859239584973285
30
0
10
15.995696289003721
20
11.975384388697098
30
0
0
SPLINE
5
142
100
AcDbEntity
8
0
100
AcDbSpline
70
4
71
3
72
8
73
4
74
0
42
0.000000001
43
0.0000000001
44
0.0000000001
40
0
40
0
40
0
40
0
40
1
40
1
40
1
40
1
41
1
41
1
41
1
41
1
10
15.995696289003721
20
11.975384388697098
30
0
10
18.871129700835713
20
10.091344051146073
30
0
10
19.389320190785867
20
5.8211260587850431
30
0
10
17.153411027525685
20
2.4375838114990604
30
0
0
SPLINE
5
143
100
AcDbEntity
8
0
100
AcDbSpline
70
4
71
3
72
8
73
4
74
0
42
0.000000001
43
0.0000000001
44
0.0000000001
40
0
40
0
40
0
40
0
40
1
40
1
40
1
40
1
41
1
41
1
41
1
41
1
10
17.153411027525685
20
2.4375838114990604
30
0
10
14.917315298827031
20
-0.94614642538905858
30
0
10
10.77365988193786
20
-2.1621030485625221
30
0
10
7.898226470105878
20
-0.27824785228632476
30
0
0
SPLINE
5
144
100
AcDbEntity
8
0
100
AcDbSpline
70
4
71
3
72
8
73
4
74
0
42
0.000000001
43
0.0000000001
44
0.0000000001
40
0
40
0
40
0
40
0
40
1
40
1
40
1
40
1
41
1
41
1
41
1
41
1
10
7.898226470105878
20
-0.27824785228632476
30
0
10
5.022793058273896
20
1.6057924852646901
30
0
10
4.5044160028852538
20
5.8760076292984289
30
0
10
6.7405110195020832
20
9.2595527249117033
30
0
0
SPLINE
5
145
100
AcDbEntity
8
0
100
AcDbSpline
70
4
71
3
72
8
73
4
74
0
42
0.000000001
43
0.0000000001
44
0.0000000001
40
-1
40
-1
40
-1
40
-1
40
0
40
0
40
0
40
0
41
1
41
1
41
1
41
1
10
-5.9341121390105034
20
28.684280696605185
30
0
10
-4.3675947844427254
20
27.206614063990614
30
0
10
-5.5633880986238529
20
22.618690795698839
30
0
10
-7.7110041000007676
20
20.103338649278246
30
0
0
LINE
5
146
100
AcDbEntity
8
0
100
AcDbLine
10
-7.7110041000007676
20
20.103338649278243
30
0
11
-7.7110041000007721
21
20.102595235851638
31
0
0
SPLINE
5
147
100
AcDbEntity
8
0
100
AcDbSpline
70
4
71
3
72
8
73
4
74
0
42
0.000000001
43
0.0000000001
44
0.0000000001
40
-1
40
-1
40
-1
40
-1
40
0
40
0
40
0
40
0
41
1
41
1
41
1
41
1
10
-7.7110041000007676
20
20.102595235851638
30
0
10
-10.168301639290165
20
17.32795985485383
30
0
10
-12.795652863671981
20
15.516349632342516
30
0
10
-14.625745882065662
20
16.931851521524724
30
0
0
SPLINE
5
148
100
AcDbEntity
8
0
100
AcDbSpline
70
4
71
3
72
8
73
4
74
0
42
0.000000001
43
0.0000000001
44
0.0000000001
40
-1
40
-1
40
-1
40
-1
40
0
40
0
40
0
40
0
41
1
41
1
41
1
41
1
10
-14.625745882065662
20
16.931851521524724
30
0
10
-15.857755677930296
20
18.159380898538544
30
0
10
-16.58034783194428
20
22.782213266280827
30
0
10
-14.423585851590895
20
25.550311736113557
30
0
0
SPLINE
5
149
100
AcDbEntity
8
0
100
AcDbSpline
70
4
71
3
72
8
73
4
74
0
42
0.000000001
43
0.0000000001
44
0.0000000001
40
-1
40
-1
40
-1
40
-1
40
0
40
0
40
0
40
0
41
1
41
1
41
1
41
1
10
-14.423585851590895
20
25.550311736113557
30
0
10
-11.453324502956086
20
29.671755896678079
30
0
10
-7.4321215252376236
20
29.832287623589764
30
0
10
-5.9341121390105034
20
28.684280696605185
30
0
0
LWPOLYLINE
5
150
100
AcDbEntity
8
0
100
AcDbPolyline
90
16
70
1
43
0.0
10
50.00752270682905
20
-17.555208376487585
10
55.856671006118297
20
1.4545235962025127
10
60.96250399893713
20
1.4545235962025127
10
60.96250399893713
20
6.3469435103437108
10
56.605952383489431
20
6.34694351034371
10
61.449521384413899
20
22.088542763348286
10
65.123054741174272
20
22.088542763348286
10
69.966623742098733
20
6.3469435103437108
10
65.610072126651019
20
6.3469435103437108
10
65.610072126651019
20
1.4545235962025127
10
70.71590511946988
20
1.4545235962025127
10
76.565053418759106
20
-17.555208376487585
10
83.237428607671049
20
-17.555208376487581
10
67.302148033602933
20
34.23445348923363
10
59.270428091985217
20
34.23445348923363
10
43.335147517917115
20
-17.555208376487585
0
LWPOLYLINE
5
151
100
AcDbEntity
8
0
100
AcDbPolyline
90
8
70
1
43
0.0
10
-45.130578545548502
20
57.329460439432935
10
102.31205447871713
20
57.329460439432935
10
102.31205447871713
20
50.000000000000007
10
117.31205447871713
20
50.000000000000007
10
117.3120544787171
20
57.329460439432935
10
166.86942145445153
20
57.329460439432943
10
166.86942145445153
20
-40.774628937831096
10
-45.130578545548516
20
-40.774628937831103
0
ENDSEC
0
SECTION
2
OBJECTS
0
DICTIONARY
5
C
100
AcDbDictionary
3
ACAD_GROUP
350
D
3
ACAD_MLINESTYLE
350
17
0
DICTIONARY
5
D
100
AcDbDictionary
0
DICTIONARY
5
1A
330
C
100
AcDbDictionary
0
DICTIONARY
5
17
100
AcDbDictionary
0
ENDSEC
0
EOF
